<svg xmlns="http://www.w3.org/2000/svg" xmlns:xlink="http://www.w3.org/1999/xlink" version="1.1" id="Layer_1" x="0px" y="0px" width="100px" height="100px" viewBox="0 0 100 100" enable-background="new 0 0 100 100" xml:space="preserve">
<path d="M93.882,43.357c2.36-4.222,1.463-7.568-2.692-10.043c-4.156-2.474-6.269-6.128-6.332-10.968  c-0.062-4.834-2.516-7.285-7.352-7.351c-4.837-0.063-8.495-2.175-10.973-6.333c-2.464-4.155-5.819-5.053-10.038-2.691  c-4.221,2.362-8.442,2.364-12.662,0c-4.222-2.363-7.57-1.464-10.041,2.691c-2.475,4.157-6.13,6.269-10.968,6.333  c-4.838,0.064-7.287,2.516-7.354,7.351c-0.064,4.838-2.174,8.494-6.33,10.968c-4.157,2.476-5.056,5.822-2.692,10.043  c2.366,4.219,2.366,8.442,0,12.663c-2.364,4.218-1.465,7.567,2.692,10.04c4.156,2.474,6.265,6.129,6.33,10.964  c0.064,4.838,2.515,7.293,7.354,7.357c4.837,0.061,8.493,2.173,10.968,6.328c2.471,4.157,5.819,5.052,10.041,2.692  c4.22-2.363,8.441-2.363,12.662,0c4.219,2.359,7.572,1.465,10.038-2.692c2.478-4.155,6.136-6.268,10.973-6.328  c4.836-0.064,7.29-2.52,7.352-7.357c0.063-4.835,2.176-8.49,6.332-10.964c4.155-2.473,5.053-5.822,2.692-10.04  C91.515,51.799,91.515,47.576,93.882,43.357z M26.229,38.047c0-4.674,3.777-8.445,8.442-8.445c4.668,0,8.45,3.772,8.45,8.445  c0,4.666-3.782,8.441-8.45,8.441C30.007,46.488,26.229,42.713,26.229,38.047z M36.547,75.176c-0.5,0.768-1.33,1.18-2.18,1.18  c-0.5,0-0.99-0.137-1.438-0.426c-1.201-0.795-1.542-2.413-0.748-3.617l31.588-48.111c0.789-1.222,2.412-1.546,3.617-0.758  c1.201,0.793,1.543,2.417,0.748,3.618L36.547,75.176z M65.646,69.776c-4.668,0-8.452-3.782-8.452-8.445  c0-4.672,3.784-8.452,8.452-8.452c4.663,0,8.452,3.78,8.452,8.452C74.099,65.994,70.31,69.776,65.646,69.776z"/>
</svg>