<svg xmlns="http://www.w3.org/2000/svg" xmlns:xlink="http://www.w3.org/1999/xlink" version="1.1" id="Layer_1" x="0px" y="0px" width="100px" height="100px" viewBox="0 0 100 100" enable-background="new 0 0 100 100" xml:space="preserve">
<g id="Captions">
</g>
<g id="Layer_7" display="none">
</g>
<g id="Your_Icon" display="none">
	<path display="inline" d="M50.002,32.008c9.916,0,17.989,8.07,17.989,17.992c0,9.92-8.073,17.99-17.989,17.99   c-9.921,0-17.995-8.07-17.995-17.99C32.007,40.078,40.081,32.008,50.002,32.008 M50.002,14.018   C30.13,14.018,14.018,30.127,14.018,50S30.13,85.982,50.002,85.982c19.873,0,35.98-16.109,35.98-35.982   S69.875,14.018,50.002,14.018L50.002,14.018z"/>
</g>
<g id="Layer_5" display="none">
	<path display="inline" d="M50.463,22.014c-19.869,0-35.984,11.045-35.984,24.674c0,6.475,3.667,12.341,9.612,16.748l-4.027,14.551   l20.54-7.579c3.132,0.612,6.438,0.968,9.859,0.968c19.873,0,35.98-11.05,35.98-24.684C86.443,33.059,70.336,22.014,50.463,22.014z"/>
</g>
<g id="Layer_4" display="none">
	
		<rect x="15.21" y="32.138" transform="matrix(0.7071 0.7071 -0.7071 0.7071 47.1313 -19.5224)" display="inline" width="63.843" height="29.986"/>
	<polygon display="inline" points="64.752,85.957 64.842,86.045 85.982,85.98 86.045,64.842 85.957,64.756  "/>
</g>
<g>
	<path d="M47.204,22.639C47.204,10.136,37.068,0,24.564,0C12.063,0,1.926,10.136,1.926,22.639c0,12.504,10.137,22.639,22.638,22.639   C37.068,45.278,47.204,35.143,47.204,22.639z M17.556,22.638c0-3.87,3.138-7.009,7.008-7.009c3.874,0,7.01,3.139,7.01,7.009   c0,3.872-3.136,7.01-7.01,7.01C20.694,29.648,17.556,26.51,17.556,22.638z"/>
	<path d="M81.072,25.395l-6.468-6.467c-1.443-1.445-3.786-1.443-5.232,0.001L18.931,69.373c-1.444,1.445-1.444,3.787,0,5.232   l6.466,6.467c1.443,1.443,3.787,1.443,5.233-0.002l50.442-50.444C82.516,29.182,82.516,26.838,81.072,25.395z"/>
	<path d="M75.436,54.721c-12.504,0-22.64,10.135-22.64,22.641c0,12.502,10.136,22.639,22.64,22.639   c12.503,0,22.639-10.139,22.639-22.639C98.074,64.855,87.938,54.721,75.436,54.721z M75.436,84.369   c-3.874,0-7.009-3.139-7.009-7.008c0-3.873,3.138-7.012,7.009-7.01c3.87-0.002,7.009,3.137,7.009,7.01   C82.447,81.23,79.306,84.369,75.436,84.369z"/>
</g>
</svg>